<svg xmlns="http://www.w3.org/2000/svg" viewBox="0 0 14.57 16.19"><defs><style>.cls-1{fill:#0c97f9;}</style></defs><title>Asset 15appointment_white</title><g id="Layer_2" data-name="Layer 2"><g id="Layer_1-2" data-name="Layer 1"><g id="Page-1"><g id="appointment"><path fill="#0c97f9" id="path-1" class="cls-1" d="M2.43,2.43a.81.81,0,0,0-.81.81V13.76a.81.81,0,0,0,.81.81h9.71a.81.81,0,0,0,.81-.81V3.24a.81.81,0,0,0-.81-.81Zm0-1.62h9.71a2.43,2.43,0,0,1,2.43,2.43V13.76a2.43,2.43,0,0,1-2.43,2.43H2.43A2.43,2.43,0,0,1,0,13.76V3.24A2.43,2.43,0,0,1,2.43.81ZM5.26,0H9.31a1.21,1.21,0,0,1,1.21,1.21V2.83A1.22,1.22,0,0,1,9.31,4.05H5.26A1.22,1.22,0,0,1,4.05,2.83V1.21A1.21,1.21,0,0,1,5.26,0Zm.41,7.7A.81.81,0,1,0,4.53,8.84l2.29,2.29L10.25,7.7A.81.81,0,0,0,9.11,6.55L6.82,8.84Z"/></g></g></g></g></svg>