<svg width="689" height="520" viewBox="0 0 689 520" version="1.1" xmlns="http://www.w3.org/2000/svg" xmlns:xlink="http://www.w3.org/1999/xlink">
<title>Page 1.1</title>
<desc>Created using Figma</desc>
<g id="Canvas" transform="translate(25526 3030)">
<g id="Page 1.1">
<g id="Group 3">
<mask id="mask0_outline" mask-type="alpha">
<g id="Clip 2">
<use xlink:href="#path0_fill" transform="translate(-25526 -3030)" fill="#FFFFFF"/>
</g>
</mask>
<g id="Fill 1" mask="url(#mask0_outline)">
<use xlink:href="#path1_fill" transform="translate(-25526 -3030)" fill="#D9EFFE"/>
</g>
</g>
<g id="Fill 4">
<use xlink:href="#path2_fill" transform="translate(-25355 -2845.32)" fill="#0E2338"/>
</g>
<g id="Fill 6">
<use xlink:href="#path3_fill" transform="translate(-25343.8 -2705.19)" fill="#FFFFFF"/>
</g>
<g id="Fill 8">
<use xlink:href="#path4_fill" transform="translate(-25405.5 -2705.19)" fill="#F9D283"/>
</g>
<g id="Fill 10">
<use xlink:href="#path5_fill" transform="translate(-25175.7 -2539.83)" fill="#F7F7F7"/>
</g>
<g id="Fill 12">
<use xlink:href="#path6_fill" transform="translate(-25290.6 -2702.38)" fill="#F9D283"/>
</g>
<g id="Fill 14">
<use xlink:href="#path7_fill" transform="translate(-25349.4 -2705.19)" fill="#D8B06A"/>
</g>
<g id="Fill 16">
<use xlink:href="#path8_fill" transform="translate(-25290.6 -2705.19)" fill="#D8B06A"/>
</g>
<g id="Fill 18">
<use xlink:href="#path9_fill" transform="translate(-25226.1 -2525.82)" fill="#FFFFFF"/>
</g>
<g id="Fill 22">
<use xlink:href="#path10_fill" transform="translate(-25226.1 -2607.09)" fill="#FFFFFF"/>
</g>
<g id="Fill 24">
<use xlink:href="#path11_fill" transform="translate(-25321.4 -2758.44)" fill="#AD7062"/>
</g>
<g id="Fill 26">
<use xlink:href="#path12_fill" transform="translate(-25346.6 -2864.94)" fill="#C48673"/>
</g>
<g id="Fill 28">
<use xlink:href="#path13_fill" transform="translate(-25380.3 -2912.58)" fill="#0E2338"/>
</g>
<g id="Fill 30">
<use xlink:href="#path14_fill" transform="translate(-25259.8 -2794.87)" fill="#F7D773"/>
</g>
<g id="Fill 32">
<use xlink:href="#path15_fill" transform="translate(-25147.7 -2710.79)" fill="#5FC6FF"/>
</g>
<g id="Fill 34">
<use xlink:href="#path16_fill" transform="translate(-25195.3 -2534.22)" fill="#F7F7F7"/>
</g>
<g id="Fill 36">
<use xlink:href="#path17_fill" transform="translate(-25206.5 -2537.03)" fill="#F7F7F7"/>
</g>
<g id="Fill 38">
<use xlink:href="#path18_fill" transform="translate(-25209.3 -2537.03)" fill="#F7F7F7"/>
</g>
<g id="Fill 40">
<use xlink:href="#path19_fill" transform="translate(-25139.2 -2523.01)" fill="#F7F7F7"/>
</g>
<g id="Fill 42">
<use xlink:href="#path20_fill" transform="translate(-25175.7 -2528.62)" fill="#F7F7F7"/>
</g>
<g id="Fill 44">
<use xlink:href="#path21_fill" transform="translate(-25184.1 -2531.42)" fill="#F7F7F7"/>
</g>
<g id="Fill 46">
<use xlink:href="#path22_fill" transform="translate(-25153.3 -2523.01)" fill="#F7F7F7"/>
</g>
<g id="Fill 48">
<use xlink:href="#path23_fill" transform="translate(-25212.1 -2539.83)" fill="#F7F7F7"/>
</g>
<g id="Fill 50">
<use xlink:href="#path24_fill" transform="translate(-25128 -2520.21)" fill="#F7F7F7"/>
</g>
<g id="Fill 52">
<use xlink:href="#path25_fill" transform="translate(-25217.7 -2542.63)" fill="#F7F7F7"/>
</g>
<g id="Fill 54">
<use xlink:href="#path26_fill" transform="translate(-25217.7 -2542.63)" fill="#F7F7F7"/>
</g>
<g id="Fill 56">
<use xlink:href="#path27_fill" transform="translate(-25114 -2517.41)" fill="#F7F7F7"/>
</g>
<g id="Fill 58">
<use xlink:href="#path28_fill" transform="translate(-25164.5 -2525.82)" fill="#F7F7F7"/>
</g>
<g id="Fill 60">
<use xlink:href="#path29_fill" transform="translate(-25237.3 -2702.38)" fill="#F7F7F7"/>
</g>
<g id="Fill 62">
<use xlink:href="#path30_fill" transform="translate(-25147.7 -2705.19)" fill="#EAEAEA"/>
</g>
<g id="Fill 64">
<use xlink:href="#path31_fill" transform="translate(-25097.2 -2705.19)" fill="#D6D6D6"/>
</g>
<g id="Fill 66">
<use xlink:href="#path32_fill" transform="translate(-25058 -2707.99)" fill="#F7F7F7"/>
</g>
<g id="Fill 68">
<use xlink:href="#path33_fill" transform="translate(-25063.6 -2713.59)" fill="#EAEAEA"/>
</g>
<g id="Stroke 70">
<use xlink:href="#path34_stroke" transform="translate(-24993.5 -2632.32)" fill="#FFFFFF"/>
</g>
<g id="Fill 72">
<use xlink:href="#path35_fill" transform="translate(-24920.6 -2514.61)" fill="#F7F7F7"/>
</g>
<g id="Fill 74">
<use xlink:href="#path36_fill" transform="translate(-24931.9 -2514.61)" fill="#F7F7F7"/>
</g>
<g id="Fill 76">
<use xlink:href="#path37_fill" transform="translate(-24943.1 -2511.8)" fill="#F7F7F7"/>
</g>
<g id="Fill 78">
<use xlink:href="#path38_fill" transform="translate(-24906.6 -2523.01)" fill="#F7F7F7"/>
</g>
<g id="Fill 80">
<use xlink:href="#path39_fill" transform="translate(-24909.4 -2520.21)" fill="#F7F7F7"/>
</g>
<g id="Fill 82">
<use xlink:href="#path40_fill" transform="translate(-24937.5 -2514.61)" fill="#F7F7F7"/>
</g>
<g id="Fill 84">
<use xlink:href="#path40_fill" transform="translate(-24937.5 -2514.61)" fill="#F7F7F7"/>
</g>
<g id="Fill 86">
<use xlink:href="#path36_fill" transform="translate(-24931.9 -2514.61)" fill="#F7F7F7"/>
</g>
<g id="Fill 88">
<use xlink:href="#path37_fill" transform="translate(-24943.1 -2511.8)" fill="#F7F7F7"/>
</g>
<g id="Fill 90">
<use xlink:href="#path35_fill" transform="translate(-24920.6 -2514.61)" fill="#F7F7F7"/>
</g>
<g id="Fill 92">
<use xlink:href="#path38_fill" transform="translate(-24906.6 -2523.01)" fill="#F7F7F7"/>
</g>
<g id="Fill 94">
<use xlink:href="#path39_fill" transform="translate(-24909.4 -2520.21)" fill="#F7F7F7"/>
</g>
<g id="Fill 96">
<use xlink:href="#path41_fill" transform="translate(-24993.5 -2668.75)" fill="#F7F7F7"/>
</g>
<g id="Fill 98">
<use xlink:href="#path42_fill" transform="translate(-25058 -2598.69)" fill="#3C3C3B"/>
</g>
<g id="Stroke 100">
<use xlink:href="#path43_stroke" transform="translate(-25035.6 -2716.4)" fill="#3C3C3B"/>
</g>
<g id="Stroke 102">
<use xlink:href="#path44_stroke" transform="translate(-25122.4 -2707.99)" fill="#3C3C3B"/>
</g>
<g id="Fill 104">
<use xlink:href="#path45_fill" transform="translate(-25102.8 -2567.86)" fill="#B2B2B2"/>
</g>
<g id="Fill 106">
<use xlink:href="#path46_fill" transform="translate(-25100 -2565.05)" fill="#878787"/>
</g>
<g id="Fill 108">
<use xlink:href="#path47_fill" transform="translate(-25133.6 -2864.94)" fill="#C48673"/>
</g>
<g id="Fill 110">
<use xlink:href="#path48_fill" transform="translate(-25164.5 -2912.58)" fill="#0E2338"/>
</g>
</g>
</g>
<defs>
<path id="path0_fill" fill-rule="evenodd" d="M 0 0L 689 0L 689 509.588L 0 509.588L 0 0Z"/>
<path id="path1_fill" fill-rule="evenodd" d="M 629.747 307.471C 617.18 293.905 607.226 275.716 610.719 257.57C 616.689 226.575 657.432 211.906 663.777 180.985C 667.271 163.959 658.767 146.243 646.161 134.256C 633.555 122.27 617.321 114.95 601.362 108.008C 445.959 40.4042 278.257 -13.3953 109.535 2.95388C 88.9556 4.94803 68.0224 8.12357 49.6911 17.6709C 31.3616 27.2183 15.8371 44.2208 12.9595 64.6601C 8.9872 92.8694 28.8154 118.269 46.9824 140.236C 65.1485 162.203 83.9501 188.925 77.5913 216.696C 70.3674 248.243 34.9146 263.891 16.4236 290.471C -82.9698 433.352 298.406 485.054 367.265 495.191C 419.6 502.897 472.378 507.62 525.254 509.284C 573.531 510.803 627.095 507.753 661.515 473.925C 694.836 441.178 698.386 382.852 669.283 346.318C 657.763 331.856 642.313 321.037 629.747 307.471Z"/>
<path id="path2_fill" fill-rule="evenodd" d="M 4.52154 15.4625C -0.113232 33.4848 10.5468 76.2858 11.01 87.5498C 11.4732 98.8139 8.69313 143.418 0.814111 159.637C -7.06491 175.857 44.8411 152.429 44.8411 152.429L 27.2303 0.143894C 27.2303 0.143894 9.15632 -2.55884 4.52154 15.4625Z"/>
<path id="path3_fill" fill-rule="evenodd" d="M 68.7736 3.6802L 24.7741 0L 5.74151 8.60714L 0 135.692C 27.5437 143.043 55.245 149.147 80.7972 154.147L 84.077 9.40674L 68.7736 3.6802Z"/>
<path id="path4_fill" fill-rule="evenodd" d="M 24.0003 29.6226C 9.46684 44.6577 2.60732 71.6107 0 112.717C 26.2692 122.289 54.5746 130.442 82.4595 137.331C 83.0628 79.5354 83.6792 24.6362 84.077 0C 84.077 0 42.3581 10.6337 24.0003 29.6226Z"/>
<path id="path5_fill" fill-rule="evenodd" d="M 11.0767 0C 7.36561 1.67455 3.67838 3.23576 0 4.74262C 1.55838 5.0433 3.05132 5.3301 4.4788 5.60534L 11.2103 4.34017C 11.1722 2.91889 11.1271 1.4687 11.0767 0Z"/>
<path id="path6_fill" fill-rule="evenodd" d="M 92.6365 26.3747C 77.9564 17.4202 20.1885 0 20.1885 0C 20.1885 0 0.880498 78.3574 0.0773069 95.1481C -0.133007 99.5701 0.103953 118.735 0.568357 144.574C 47.7739 154.842 90.798 161.507 117.001 165.357C 120.958 164.127 124.926 162.851 128.918 161.481C 126.821 114.757 114.577 39.7558 92.6365 26.3747Z"/>
<path id="path7_fill" fill-rule="evenodd" d="M 11.3554 7.31223C 11.3554 7.31223 13.1029 48.5667 0 78.3602L 13.5395 102.655L 0 117.782C 0 117.782 2.95092 124.774 6.82702 134.985C 13.1342 136.774 19.4485 138.489 25.7422 140.133C 26.4008 81.9849 27.3806 5.42102 28.0257 0L 11.3554 7.31223Z"/>
<path id="path8_fill" fill-rule="evenodd" d="M 18.947 109.541C 18.947 109.541 30.2256 95.0439 36.4284 94.2997C 36.4284 94.2997 30.9879 12.5306 36.4155 5.8395L 20.323 0C 20.323 0 1.48935 78.5766 0.343355 92.6725C -0.252446 99.9938 0.00728755 122.856 0.513866 147.061C 7.66743 148.565 14.7278 149.992 21.6573 151.344C 25.7427 143.499 30.6161 136.304 36.4334 130.724L 18.947 109.541Z"/>
<path id="path9_fill" fill-rule="evenodd" d="M 2.80257 0C 1.86838 0.220009 0.93315 0.449828 0 0.662831L 2.80257 0Z"/>
<path id="path10_fill" fill-rule="evenodd" d="M 8.4077 0.462752L 5.7363 0C 5.6493 0.434119 1.34954 22.8559 0 61.2301C 0.884865 61.3742 1.7638 61.5174 2.63878 61.6587C 2.6714 60.7073 2.70106 59.7329 2.73764 58.8111C 4.17815 22.1576 8.36618 0.674269 8.4077 0.462752Z"/>
<path id="path11_fill" fill-rule="evenodd" d="M 1.76734 50.0696C -1.64067 68.0252 -1.85484 88.4151 17.3334 89.6519C 36.5208 90.8877 48.6583 57.4949 48.6583 57.4949L 56.0514 5.80554L 2.23589 0C 2.23589 0 4.29529 36.7463 1.76734 50.0696Z"/>
<path id="path12_fill" fill-rule="evenodd" d="M 0 14.2781L 0 22.3494C 0 22.3494 8.62314 99.9507 14.1663 112.366C 19.7103 124.783 28.9504 138.843 48.0438 137.199C 67.1371 135.555 81.3043 122.299 88.0804 110.505C 94.8564 98.708 112.103 45.9397 112.103 45.9397L 79.4572 0L 0 14.2781Z"/>
<path id="path13_fill" fill-rule="evenodd" d="M 128.255 2.70867C 97.2461 -7.86397 81.2987 15.9247 81.2987 15.9247C 81.2987 15.9247 69.6232 8.00299 34.2581 11.5238C 0.610974 14.8751 -5.1122 38.2401 3.68839 57.5864C 12.488 76.9318 42.5948 76.0102 54.1737 72.3256C 65.7535 68.641 81.2987 55.7432 81.2987 55.7432C 78.4333 61.8207 82.4526 68.8698 90.7638 72.0309C 99.075 75.1902 105.919 71.3014 108.119 69.1136C 110.32 66.9258 115.942 63.7647 119.608 66.9258C 123.274 70.0851 121.075 77.378 117.896 84.4289C 114.72 91.478 117.896 98.7708 121.318 98.7708C 124.741 98.7708 124.741 90.9913 131.341 93.179C 145.568 97.8954 132.563 125.025 128.408 127.456C 124.253 129.886 119.364 128.671 117.624 133.99C 113.896 145.386 121.168 153.374 114.966 163.946C 108.764 174.52 99.0182 172.758 101.675 207.12C 104.333 241.482 126.483 235.314 126.483 235.314C 120.282 277.607 169.01 341.926 169.01 341.926C 169.01 341.926 153.949 286.417 183.186 193.904C 212.422 101.39 183.186 69.6709 183.186 69.6709C 183.186 46.7624 159.265 13.2813 128.255 2.70867Z"/>
<path id="path14_fill" fill-rule="evenodd" d="M 2.80301 0C 1.25496 0 0 1.25481 0 2.80267C 0 4.34964 1.25496 5.60534 2.80301 5.60534C 4.35017 5.60534 5.60514 4.34964 5.60514 2.80267C 5.60514 1.25481 4.35017 0 2.80301 0Z"/>
<path id="path15_fill" fill-rule="evenodd" d="M 113.739 0L 15.1811 25.2442C 15.1811 25.2442 0 63.5766 0 67.4103L 0 178.428C 45.3986 184.75 91.1085 188.816 136.913 190.581L 145.734 27.1605L 113.739 0Z"/>
<path id="path16_fill" fill-rule="evenodd" d="M 8.4077 2.80267C 5.59669 1.9073 2.79179 0.980783 0 0C 2.79179 0.980783 5.59669 1.90831 8.4077 2.80267Z"/>
<path id="path17_fill" fill-rule="evenodd" d="M 8.4077 2.80267C 5.59527 1.9091 2.79105 0.982501 0 0C 2.79105 0.982501 5.59527 1.9091 8.4077 2.80267Z"/>
<path id="path18_fill" fill-rule="evenodd" d="M 1.3116 0.494671C 0.881407 0.33632 0.435799 0.165357 0 0C 0.435799 0.165357 0.881407 0.33632 1.3116 0.494671Z"/>
<path id="path19_fill" fill-rule="evenodd" d="M 5.60514 0.944499C 3.73543 0.636206 1.86705 0.323708 0 0C 1.86705 0.322307 3.73543 0.636206 5.60514 0.944499Z"/>
<path id="path20_fill" fill-rule="evenodd" d="M 8.4077 2.80267C 5.59901 1.90856 2.79516 0.975267 0 0C 2.79516 0.973868 5.59805 1.90996 8.4077 2.80267Z"/>
<path id="path21_fill" fill-rule="evenodd" d="M 8.4077 2.80267C 5.59747 1.90752 2.7946 0.978033 0 0C 2.7946 0.978033 5.59747 1.9087 8.4077 2.80267Z"/>
<path id="path22_fill" fill-rule="evenodd" d="M 5.60514 1.40133C 3.73489 0.947961 1.86558 0.482997 0 0C 1.86558 0.481709 3.73396 0.947961 5.60514 1.40133Z"/>
<path id="path23_fill" fill-rule="evenodd" d="M 1.40128 0.571744C 0.938737 0.385367 0.468004 0.191983 0 0C 0.468004 0.191983 0.937373 0.383966 1.40128 0.571744Z"/>
<path id="path24_fill" fill-rule="evenodd" d="M 2.80257 0.507283C 1.86802 0.341926 0.933463 0.170963 0 0C 0.933463 0.170963 1.86802 0.341926 2.80257 0.507283Z"/>
<path id="path25_fill" fill-rule="evenodd" d="M 1.22752 0.511487C 0.81835 0.341926 0.410576 0.172364 0 0C 0.411977 0.172364 0.81835 0.341926 1.22752 0.511487Z"/>
<path id="path26_fill" fill-rule="evenodd" d="M 0.518475 0.225615C 0.343315 0.148541 0.173759 0.0770734 0 0C 0.173759 0.0770734 0.343315 0.148541 0.518475 0.225615Z"/>
<path id="path27_fill" fill-rule="evenodd" d="M 0.0434398 0.00700667C 0.0280257 0.004204 0.0140128 0.00280267 0 0C 0.0140128 0.00280267 0.0280257 0.004204 0.0434398 0.00700667Z"/>
<path id="path28_fill" fill-rule="evenodd" d="M 5.60514 2.80267C 3.73312 1.91076 1.86519 0.970411 0 0C 1.86519 0.968741 3.73312 1.91243 5.60514 2.80267Z"/>
<path id="path29_fill" fill-rule="evenodd" d="M 126.116 0C 126.116 0 38.0618 35.4069 27.7318 58.2006C 20.9819 73.0964 10.9365 122.45 0 155.455C 3.73414 157.439 8.09344 155.876 11.6074 157.549C 40.6221 162.678 63.9955 166.035 76.6619 167.937C 91.2579 170.13 105.892 172.055 120.55 173.765C 121.49 106.679 122.419 38.9135 122.419 38.9135L 126.116 0Z"/>
<path id="path30_fill" fill-rule="evenodd" d="M 50.1537 16.271C 50.8128 12.3551 51.4873 8.75666 52.1999 5.53008L 53.2488 0L 24.9641 9.14073L 8.03479 104.079L 27.4927 130.641L 0 172.05C 12.1597 173.712 24.3394 175.22 36.5382 176.568C 38.8098 131.762 41.9183 83.6029 45.9954 46.9996C 47.2879 35.4511 48.6606 25.0548 50.1537 16.271Z"/>
<path id="path31_fill" fill-rule="evenodd" d="M 0 5.60534C 0.906063 3.58771 1.84025 1.71428 2.80257 0L 2.2079 0.0917526L 0 5.60534Z"/>
<path id="path32_fill" fill-rule="evenodd" d="M 90.7677 165.9C 92.8248 128.467 112.103 41.9911 112.103 41.9911L 31.7241 0L 1.56687 144.344L 0 184.436C 18.9551 185.854 37.9389 186.876 56.9375 187.481C 68.0045 187.834 79.3556 187.93 90.6835 187.454C 90.5152 177.754 90.5254 170.305 90.7677 165.9Z"/>
<path id="path33_fill" fill-rule="evenodd" d="M 9.90511 146.214L 28.1271 132.748C 26.2305 86.7253 58.8539 16.495 58.8539 16.495L 28.1271 0C 22.4373 11.9451 17.8372 27.409 14.134 45.0028C 5.2541 87.1235 1.46816 141.431 0 188.933C 7.73652 189.549 15.4767 190.105 23.2232 190.581C 25.0488 185.613 26.2041 182.699 26.2041 182.699L 9.90511 146.214Z"/>
<path id="path34_stroke" d="M 5.60514 0C 5.0515 -0.505947 5.05102 -0.505431 5.05052 -0.504873C 5.0503 -0.504632 5.04975 -0.504031 5.04931 -0.503546C 5.04843 -0.502577 5.0474 -0.501439 5.04622 -0.500131C 5.04386 -0.497515 5.04091 -0.494221 5.03737 -0.490244C 5.0303 -0.48229 5.02091 -0.471604 5.00928 -0.458152C 4.98602 -0.431246 4.95387 -0.393274 4.91362 -0.34395C 4.83312 -0.245298 4.72029 -0.101255 4.58168 0.0904583C 4.30443 0.473926 3.92421 1.04787 3.49341 1.83043C 2.6315 3.3961 1.56892 5.79352 0.722685 9.16649C -0.970287 15.9145 -1.79139 26.5422 1.56241 42.1971L 3.02913 41.8829C -0.284567 26.4152 0.549009 16.0229 2.1776 9.53151C 2.99214 6.28482 4.00706 4.00773 4.80745 2.55382C 5.2078 1.82659 5.55493 1.30447 5.79725 0.969323C 5.91842 0.801728 6.01342 0.680827 6.07582 0.60436C 6.10702 0.566125 6.13007 0.538995 6.14416 0.522687C 6.15121 0.514534 6.15601 0.509085 6.15848 0.506307C 6.15972 0.504918 6.16037 0.504196 6.16042 0.504138C 6.16045 0.504109 6.16033 0.504245 6.16005 0.504547C 6.15991 0.504698 6.1596 0.505048 6.15953 0.505123C 6.15917 0.505515 6.15878 0.505947 5.60514 0Z"/>
<path id="path35_fill" fill-rule="evenodd" d="M 1.40128 0C 0.934189 0.154147 0.46834 0.308293 0 0.458236C 0.46834 0.308293 0.934189 0.154147 1.40128 0Z"/>
<path id="path36_fill" fill-rule="evenodd" d="M 5.60514 0C 3.74288 1.0127 1.87275 1.9301 0 2.80267C 1.87275 1.9301 3.74288 1.0127 5.60514 0Z"/>
<path id="path37_fill" fill-rule="evenodd" d="M 5.60514 0C 3.7396 0.3153 1.8698 0.602574 0 0.884242C 1.8698 0.603975 3.7396 0.313899 5.60514 0Z"/>
<path id="path38_fill" fill-rule="evenodd" d="M 0.00140128 0L 0 0.00140133L 0.00140128 0Z"/>
<path id="path39_fill" fill-rule="evenodd" d="M 1.38307 0C 0.922045 0.172364 0.462424 0.340524 0 0.508684C 0.462424 0.340524 0.922045 0.172364 1.38307 0Z"/>
<path id="path40_fill" fill-rule="evenodd" d="M 5.60514 0C 3.74068 0.411992 1.871 0.804366 0 1.17432C 1.8723 0.805767 3.74068 0.411992 5.60514 0Z"/>
<path id="path41_fill" fill-rule="evenodd" d="M 64.1601 11.8013C 59.077 4.29942 50.5813 -0.141221 40.5509 0.00342838C 23.8395 0.240729 10.7471 11.8704 6.18631 22.8855C 0.242527 37.2474 -0.182636 53.085 0.0455001 59.1745C 0.256667 64.8376 2.3853 74.1897 3.05746 77.0203C 3.18472 77.5611 3.33461 78.0867 3.50619 78.6143L 21.1348 132.399C 21.1348 132.399 22.8562 139.412 24.6973 148.541C 46.966 147.818 69.2507 145.021 89.3191 137.743C 92.4084 73.2736 75.0748 27.9113 64.1601 11.8013Z"/>
<path id="path42_fill" fill-rule="evenodd" d="M 67.376 8.72185C 60.2326 0.561263 48.787 -1.88916 33.3458 1.43975C 17.0748 4.94903 6.62026 12.5498 2.27231 24.0272C -4.04216 40.6913 4.02902 61.7311 11.5389 75.9561C 13.5483 76.0888 15.5558 76.242 17.5662 76.3654C 10.1477 63.0021 0.980882 41.667 6.99231 25.8159C 10.6959 16.0488 19.9196 9.51062 34.4078 6.38732C 47.9235 3.47055 57.7337 5.3808 63.5792 12.0564C 77.4361 27.8822 67.2791 65.9918 63.4635 78.3812C 65.2156 78.4205 66.9723 78.4513 68.7355 78.4747C 73.0788 64.1124 82.5636 26.072 67.376 8.72185Z"/>
<path id="path43_stroke" d="M 9.77737 123.582C 9.92359 124.955 11.1551 125.95 12.5281 125.803C 13.901 125.657 14.8955 124.426 14.7492 123.053L 9.77737 123.582ZM 16.7782 77.617L 19.0082 78.7471L 19.0082 78.747L 16.7782 77.617ZM 21.8859 8.31852L 23.5453 6.4487L 23.545 6.44839L 21.8859 8.31852ZM 0.252602 -2.48721C -1.12104 -2.62671 -2.3477 -1.62625 -2.48721 -0.252602C -2.62671 1.12104 -1.62625 2.3477 -0.252602 2.48721L 0.252602 -2.48721ZM 12.2633 123.317C 14.7492 123.053 14.7493 123.053 14.7493 123.053C 14.7493 123.053 14.7493 123.053 14.7493 123.053C 14.7492 123.052 14.7491 123.051 14.749 123.05C 14.7487 123.047 14.7482 123.043 14.7476 123.037C 14.7462 123.024 14.7442 123.004 14.7415 122.977C 14.736 122.923 14.7278 122.841 14.7173 122.732C 14.6963 122.515 14.6662 122.19 14.6303 121.769C 14.5585 120.927 14.464 119.701 14.3742 118.181C 14.1944 115.137 14.0346 110.924 14.1131 106.246C 14.2723 96.7583 15.4117 85.8435 19.0082 78.7471L 14.5482 76.4868C 10.3918 84.6881 9.27383 96.6234 9.11379 106.162C 9.03266 110.997 9.19776 115.341 9.38286 118.475C 9.47549 120.044 9.57332 121.313 9.64835 122.193C 9.68587 122.634 9.71771 122.977 9.74037 123.212C 9.7517 123.33 9.76074 123.42 9.76705 123.482C 9.77021 123.513 9.77268 123.537 9.77442 123.554C 9.77529 123.562 9.77597 123.569 9.77646 123.574C 9.77671 123.576 9.77691 123.578 9.77706 123.579C 9.77714 123.58 9.77721 123.581 9.77725 123.581C 9.77732 123.582 9.77737 123.582 12.2633 123.317ZM 19.0082 78.747C 23.0355 70.7999 27.6052 56.06 29.5557 41.8673C 30.5327 34.7577 30.8723 27.6509 30.1035 21.5168C 29.3438 15.4556 27.4475 9.91184 23.5453 6.4487L 20.2264 10.1883C 22.7776 12.4525 24.4385 16.5226 25.1423 22.1386C 25.837 27.6818 25.5465 34.3156 24.6022 41.1866C 22.7101 54.9554 18.2726 69.1374 14.5482 76.4869L 19.0082 78.747ZM 23.545 6.44839C 19.2297 2.62006 13.3085 0.416476 8.68668 -0.835245C 6.33954 -1.47092 4.24845 -1.88158 2.74137 -2.13394C 1.98662 -2.26032 1.37512 -2.34754 0.947411 -2.40366C 0.733472 -2.43173 0.565265 -2.45206 0.447839 -2.46564C 0.389118 -2.47244 0.343071 -2.47755 0.310328 -2.4811C 0.293955 -2.48287 0.280906 -2.48426 0.27126 -2.48527C 0.266437 -2.48578 0.262464 -2.48619 0.259351 -2.48651C 0.257794 -2.48667 0.256453 -2.48681 0.255327 -2.48693C 0.254765 -2.48699 0.254083 -2.48705 0.253802 -2.48708C 0.253175 -2.48715 0.252602 -2.48721 0 0C -0.252602 2.48721 -0.253067 2.48716 -0.253479 2.48712C -0.253545 2.48711 -0.253904 2.48707 -0.254037 2.48706C -0.254302 2.48703 -0.254355 2.48703 -0.254197 2.48704C -0.253881 2.48708 -0.252719 2.4872 -0.250723 2.48741C -0.246731 2.48782 -0.239399 2.4886 -0.228806 2.48975C -0.207619 2.49205 -0.173396 2.49583 -0.126757 2.50123C -0.0334639 2.51202 0.109405 2.52924 0.296891 2.55384C 0.672029 2.60307 1.22478 2.68172 1.91563 2.7974C 3.29974 3.02917 5.22523 3.40742 7.37962 3.99089C 11.7609 5.17747 16.7826 7.13315 20.2268 10.1887L 23.545 6.44839Z"/>
<path id="path44_stroke" d="M 25.62 2.41331C 26.9529 2.05288 27.7412 0.680207 27.3807 -0.652629C 27.0203 -1.98546 25.6476 -2.77375 24.3148 -2.41331L 25.62 2.41331ZM 2.82891 59.545L 5.25074 58.9248L 5.25073 58.9247L 2.82891 59.545ZM 33.3711 129.948L 30.879 130.147L 30.879 130.147L 33.3711 129.948ZM 29.1757 150.339C 28.6207 151.603 29.1957 153.078 30.46 153.633C 31.7243 154.188 33.199 153.613 33.754 152.349L 29.1757 150.339ZM 24.9674 0C 24.3148 -2.41331 24.313 -2.41282 24.311 -2.41229C 24.3102 -2.41206 24.3081 -2.41149 24.3064 -2.41104C 24.3031 -2.41013 24.2993 -2.40907 24.2949 -2.40786C 24.2861 -2.40543 24.2752 -2.40239 24.2622 -2.39872C 24.2362 -2.39138 24.2019 -2.38151 24.1595 -2.369C 24.0748 -2.34398 23.9579 -2.30837 23.8113 -2.26117C 23.5184 -2.16679 23.1064 -2.02593 22.5962 -1.83064C 21.5766 -1.44036 20.1596 -0.830808 18.5123 0.0625679C 15.2214 1.84729 10.9783 4.78311 7.16115 9.39531C -0.57113 18.7382 -6.17102 34.4831 0.407089 60.1654L 5.25073 58.9247C -1.00062 34.5182 4.46874 20.4907 11.0131 12.5832C 14.3343 8.57024 18.0312 6.01142 20.896 4.45781C 22.3264 3.68202 23.5411 3.16148 24.3836 2.83896C 24.8046 2.67785 25.1314 2.56663 25.3443 2.49802C 25.4508 2.46373 25.5287 2.44014 25.5755 2.42631C 25.5989 2.4194 25.6145 2.41494 25.622 2.41281C 25.6258 2.41175 25.6276 2.41127 25.6272 2.41135C 25.6271 2.4114 25.6264 2.41158 25.6252 2.41191C 25.6246 2.41207 25.6233 2.41243 25.623 2.41251C 25.6216 2.41289 25.62 2.41331 24.9674 0ZM 0.407082 60.1653C 5.09135 78.4545 12.5676 92.6757 18.9391 104.035C 22.1467 109.754 25.0052 114.629 27.1639 119.018C 29.326 123.413 30.6297 127.025 30.879 130.147L 35.8631 129.749C 35.5364 125.658 33.8849 121.354 31.6505 116.811C 29.4126 112.261 26.4334 107.176 23.3 101.589C 16.9894 90.3384 9.77061 76.572 5.25074 58.9248L 0.407082 60.1653ZM 30.879 130.147C 31.4388 137.151 30.9719 142.288 30.3878 145.625C 30.0956 147.294 29.7735 148.516 29.5342 149.298C 29.4145 149.69 29.3154 149.971 29.251 150.145C 29.2188 150.231 29.1953 150.29 29.1821 150.323C 29.1756 150.339 29.1716 150.349 29.1704 150.351C 29.1699 150.353 29.17 150.352 29.1709 150.35C 29.1713 150.349 29.1719 150.348 29.1727 150.346C 29.1731 150.345 29.1736 150.344 29.1741 150.343C 29.1743 150.342 29.1747 150.341 29.1748 150.341C 29.1753 150.34 29.1757 150.339 31.4648 151.344C 33.754 152.349 33.7545 152.348 33.7549 152.347C 33.7551 152.346 33.7556 152.345 33.7559 152.345C 33.7566 152.343 33.7573 152.341 33.7581 152.34C 33.7596 152.336 33.7614 152.332 33.7632 152.328C 33.767 152.319 33.7715 152.308 33.7767 152.296C 33.7871 152.271 33.8002 152.24 33.8157 152.202C 33.8468 152.125 33.8879 152.021 33.9371 151.888C 34.0355 151.624 34.1664 151.248 34.3155 150.761C 34.6138 149.786 34.9844 148.364 35.3129 146.487C 35.9702 142.732 36.4564 137.172 35.8631 129.749L 30.879 130.147Z"/>
<path id="path45_fill" fill-rule="evenodd" d="M 12.6121 0C 5.64676 0 0 5.64696 0 12.6115C 0 19.5771 5.64676 25.224 12.6121 25.224C 19.5764 25.224 25.2231 19.5771 25.2231 12.6115C 25.2231 5.64696 19.5764 0 12.6121 0Z"/>
<path id="path46_fill" fill-rule="evenodd" d="M 7.00693 0C 3.13763 0 0 3.13672 0 7.00616C 0 10.8756 3.13763 14.0133 7.00693 14.0133C 10.8752 14.0133 14.0128 10.8756 14.0128 7.00616C 14.0128 3.13672 10.8752 0 7.00693 0Z"/>
<path id="path47_fill" fill-rule="evenodd" d="M 77.3029 0L 1.16428 38.0245C 1.16428 38.0245 1.15095 38.2757 1.11001 38.7525C 0.667281 45.6155 -2.53749 98.9951 4.50425 114.669C 11.7059 130.686 39.9767 138.927 41.5477 141.378C 41.6 141.471 41.7076 141.511 41.68 141.617L 38.4752 158.576L 37.4298 164.113L 35.3904 174.872C 33.9023 183.669 32.5341 194.081 31.2459 205.648C 34.1575 212.167 42.6055 228.489 53.8583 229.787C 61.2895 230.649 74.419 213.597 85.1625 195.831C 89.0385 178.21 93.8533 162.722 99.8087 150.759C 95.3814 140.306 88.2606 123.359 102.423 97.0341C 104.247 93.6557 105.843 90.3563 107.266 87.1764C 120.181 58.1621 117.471 38.0245 117.471 38.0245L 77.3029 0Z"/>
<path id="path48_fill" fill-rule="evenodd" d="M 142.242 45.8907C 136.195 41.6437 142.242 45.8907 143.106 22.9579C 143.969 0.0251914 109.42 -3.37204 89.5395 2.57359C 69.6727 8.51922 68.8085 30.6012 60.1714 33.9994C 51.5343 37.3967 39.4413 30.6012 27.3494 41.6437C 15.2564 52.6852 23.8945 71.9286 23.8945 71.9286C 19.6828 72.7916 16.0133 74.2377 12.8948 76.056C -4.43408 86.1685 -4.65061 108.158 14.3932 109.591C 25.6746 110.454 38.2543 104.018 47.9846 97.4088C 57.6478 90.8536 64.4914 84.111 64.4914 84.111C 128.395 38.0335 116.667 93.5999 112.186 126.924C 112.119 127.374 112.064 127.839 112.01 128.291C 107.691 161.415 101.631 163.513 94.7218 157.168C 58.9977 124.362 35.1233 153.771 30.8042 163.513C 26.4852 173.252 42.8971 205.581 64.4914 207.28C 86.0847 208.979 98.1766 191.992 113.739 172.457C 125.276 157.951 123.009 142.53 122.497 130.666C 122.321 126.552 122.348 122.863 123.239 119.784C 126.694 107.894 137.059 108.742 139.65 121.482C 140.608 126.22 139.542 131.369 137.829 135.974C 134.914 143.777 130.15 150.002 130.15 150.002C 137.371 148.528 143.862 145.039 149.368 139.85C 160.988 128.888 168.154 110.295 168.154 86.6584C 168.154 51.8363 148.288 50.1377 142.242 45.8907Z"/>
</defs>
</svg>
