<svg width="169" height="42" viewBox="0 0 169 42" version="1.1" xmlns="http://www.w3.org/2000/svg" xmlns:xlink="http://www.w3.org/1999/xlink">
<title>Group</title>
<desc>Created using Figma</desc>
<g id="Canvas" transform="translate(17000 382)">
<g id="Group">
<g id="Group">
<g id="Vector">
<use xlink:href="#path0_fill" transform="matrix(1 3.84902e-19 1.50019e-17 1 -16941.5 -380.743)" fill="#fff"/>
</g>
<g id="Vector">
<use xlink:href="#path1_fill" transform="matrix(1 -3.46945e-18 1.11561e-17 1 -16918.6 -380.743)" fill="#fff"/>
</g>
<g id="Vector">
<use xlink:href="#path2_fill" transform="matrix(1 -3.46945e-18 1.11561e-17 1 -16882.5 -380.743)" fill="#fff"/>
</g>
<g id="Vector">
<use xlink:href="#path3_fill" transform="matrix(1 -3.46945e-18 1.11561e-17 1 -16872.4 -381)" fill="#fff"/>
</g>
<g id="Vector">
<use xlink:href="#path4_fill" transform="matrix(1 -3.46945e-18 1.11561e-17 1 -16849.1 -380.743)" fill="#fff"/>
</g>
<g id="Vector">
<use xlink:href="#path5_fill" transform="matrix(1 -3.46945e-18 1.11561e-17 1 -16940.5 -351.451)" fill="#fff"/>
</g>
<g id="Vector">
<use xlink:href="#path6_fill" transform="matrix(1 -3.46945e-18 1.11561e-17 1 -16929.2 -351.537)" fill="#fff"/>
</g>
<g id="Vector">
<use xlink:href="#path7_fill" transform="matrix(1 -3.46945e-18 1.11561e-17 1 -16917.1 -351.623)" fill="#fff"/>
</g>
<g id="Vector">
<use xlink:href="#path8_fill" transform="matrix(1 -3.46945e-18 1.11561e-17 1 -16906.4 -351.452)" fill="#fff"/>
</g>
<g id="Vector">
<use xlink:href="#path9_fill" transform="matrix(1 -3.46945e-18 1.11561e-17 1 -16896.6 -351.537)" fill="#fff"/>
</g>
<g id="Vector">
<use xlink:href="#path10_fill" transform="matrix(1 -3.46945e-18 1.11561e-17 1 -16883.9 -351.451)" fill="#fff"/>
</g>
</g>
<g id="Group">
<g id="Group">
<g id="Vector">
<use xlink:href="#path11_fill" transform="matrix(1 3.51065e-19 1.507e-17 1 -16999.9 -382)" fill="#35E4FC"/>
</g>
</g>
<g id="Vector">
<use xlink:href="#path12_fill" transform="matrix(1 -3.46945e-18 1.11473e-17 1 -16990.9 -380.689)" fill="url(#paint12_linear)"/>
</g>
<g id="Vector">
<use xlink:href="#path13_fill" transform="matrix(1 -3.46945e-18 1.11473e-17 1 -16999.9 -373.478)" fill="url(#paint13_linear)"/>
</g>
<g id="Vector">
<use xlink:href="#path14_fill" transform="matrix(1 3.93733e-19 1.49843e-17 1 -17000 -381.781)" fill="#4285C9"/>
</g>
<g id="Vector">
<use xlink:href="#path15_fill" transform="matrix(1 -3.46945e-18 1.11473e-17 1 -16968.8 -363.809)" fill="#3074BB"/>
</g>
<g id="Vector" opacity="0.52">
<use xlink:href="#path16_fill" transform="matrix(1 -3.46945e-18 1.11473e-17 1 -16968.8 -367.633)" fill="url(#paint16_linear)"/>
</g>
<g id="Vector" opacity="0.52">
<use xlink:href="#path17_fill" transform="matrix(1 -3.46945e-18 1.11473e-17 1 -16975.3 -361.132)" fill="url(#paint17_linear)"/>
</g>
<g id="Vector" opacity="0.52">
<use xlink:href="#path18_fill" transform="matrix(1 -3.46945e-18 1.11473e-17 1 -16985.9 -356.871)" fill="url(#paint18_linear)"/>
</g>
<g id="Vector" opacity="0.52">
<use xlink:href="#path19_fill" transform="matrix(1 -3.46945e-18 1.11473e-17 1 -16979.5 -350.37)" fill="url(#paint19_linear)"/>
</g>
<g id="Vector" opacity="0.7">
<use xlink:href="#path20_fill" transform="matrix(1 -3.46945e-18 1.11473e-17 1 -16997.2 -378.941)" fill="url(#paint20_linear)"/>
</g>
</g>
</g>
</g>
<defs>
<linearGradient id="paint12_linear" x1="0" y1="0" x2="1" y2="0" gradientUnits="userSpaceOnUse" gradientTransform="matrix(8.2504 11.0116 -10.9487 8.29781 7.5396 -3.25038)">
<stop offset="0" stop-color="#35E4FC" stop-opacity="0"/>
<stop offset="1" stop-color="#0A3B61"/>
</linearGradient>
<linearGradient id="paint13_linear" x1="0" y1="0" x2="1" y2="0" gradientUnits="userSpaceOnUse" gradientTransform="matrix(7.50921 20.75 -20.6315 7.55235 8.19992 -2.98794)">
<stop offset="0" stop-color="#35E4FC" stop-opacity="0"/>
<stop offset="1" stop-color="#0A3B61"/>
</linearGradient>
<linearGradient id="paint16_linear" x1="0" y1="0" x2="1" y2="0" gradientUnits="userSpaceOnUse" gradientTransform="matrix(3.90598 -3.7936 3.77193 3.92842 -0.616705 3.19613)">
<stop offset="0" stop-color="#04111F"/>
<stop offset="0.198" stop-color="#0B2138" stop-opacity="0.802"/>
<stop offset="0.6149" stop-color="#1C4876" stop-opacity="0.3851"/>
<stop offset="1" stop-color="#2D70B5" stop-opacity="0"/>
</linearGradient>
<linearGradient id="paint17_linear" x1="0" y1="0" x2="1" y2="0" gradientUnits="userSpaceOnUse" gradientTransform="matrix(-3.68921 4.26832 -4.24394 -3.7104 7.20058 2.97317)">
<stop offset="0" stop-color="#04111F"/>
<stop offset="0.198" stop-color="#0B2138" stop-opacity="0.802"/>
<stop offset="0.6149" stop-color="#1C4876" stop-opacity="0.3851"/>
<stop offset="1" stop-color="#2D70B5" stop-opacity="0"/>
</linearGradient>
<linearGradient id="paint18_linear" x1="0" y1="0" x2="1" y2="0" gradientUnits="userSpaceOnUse" gradientTransform="matrix(-3.77508 -3.93137 -3.90892 3.79677 7.05062 3.30889)">
<stop offset="0" stop-color="#04111F"/>
<stop offset="0.198" stop-color="#0B2138" stop-opacity="0.802"/>
<stop offset="0.6149" stop-color="#1C4876" stop-opacity="0.3851"/>
<stop offset="1" stop-color="#2D70B5" stop-opacity="0"/>
</linearGradient>
<linearGradient id="paint19_linear" x1="0" y1="0" x2="1" y2="0" gradientUnits="userSpaceOnUse" gradientTransform="matrix(4.35643 3.67664 3.65564 -4.38146 -0.757737 3.57921)">
<stop offset="0" stop-color="#04111F"/>
<stop offset="0.198" stop-color="#0B2138" stop-opacity="0.802"/>
<stop offset="0.6149" stop-color="#1C4876" stop-opacity="0.3851"/>
<stop offset="1" stop-color="#2D70B5" stop-opacity="0"/>
</linearGradient>
<linearGradient id="paint20_linear" x1="0" y1="0" x2="1" y2="0" gradientUnits="userSpaceOnUse" gradientTransform="matrix(27.6475 -13.5621 13.4846 27.8063 -8.16901 5.31893)">
<stop offset="0" stop-color="#2D70B5" stop-opacity="0"/>
<stop offset="0.4837" stop-color="#051322" stop-opacity="0.979"/>
<stop offset="0.5985" stop-color="#0D253E" stop-opacity="0.7612"/>
<stop offset="0.845" stop-color="#205285" stop-opacity="0.2939"/>
<stop offset="1" stop-color="#2D70B5" stop-opacity="0"/>
</linearGradient>
<path id="path0_fill" d="M 12.8031 11.9051C 12.547 11.4768 12.291 11.2199 11.9496 10.963C 11.6081 10.706 11.3521 10.5347 10.9253 10.4491L 10.4132 10.2778L 10.84 10.0208C 11.096 9.84953 11.3521 9.67823 11.6081 9.50694C 11.8642 9.33564 12.1203 9.0787 12.291 8.7361L 16.388 3.16898C 16.8147 2.56944 16.9001 1.79861 16.5587 1.11342C 16.2172 0.428238 15.5344 1.30689e-06 14.8516 1.30689e-06L 14.6809 1.30689e-06C 14.1688 1.30689e-06 13.8273 0.0856468 13.4859 0.171295C 13.1445 0.256943 12.8884 0.513889 12.6324 0.942129L 7.5965 8.22222C 7.25508 8.73611 6.57225 9.0787 5.71871 9.0787L 4.69447 9.0787L 4.69447 1.9699C 4.69447 0.856478 3.84093 1.30689e-06 2.73133 1.30689e-06L 1.96314 1.30689e-06C 0.853539 1.30689e-06 0 0.942126 0 1.9699L 0 19.956C 0 21.0694 0.853539 21.9259 1.96314 21.9259L 2.73133 21.9259C 3.84093 21.9259 4.69447 21.0694 4.69447 19.956L 4.69447 12.419L 6.23084 12.419C 6.74296 12.419 7.16973 12.5046 7.42579 12.5903C 7.76721 12.7616 8.02327 12.9329 8.19398 13.2755L 13.2299 21.0694C 13.3152 21.2407 13.4006 21.3264 13.4859 21.412C 13.5713 21.4977 13.6566 21.5833 13.8273 21.669C 13.998 21.7546 14.0834 21.7546 14.3395 21.8403C 14.5102 21.8403 14.7662 21.9259 15.0223 21.9259L 15.6198 21.9259C 16.388 21.9259 16.9854 21.5833 17.3269 20.8981C 17.6683 20.2986 17.6683 19.5278 17.2415 18.9282L 12.8031 11.9051Z"/>
<path id="path1_fill" d="M 27.4365 1.30689e-06C 27.0951 1.30689e-06 26.7537 0.0856455 26.4977 0.256942C 26.2416 0.428238 26.0709 0.685185 25.9855 0.942129L 22.9128 12.5903C 22.8274 12.9329 22.7421 13.3611 22.6567 13.7037C 22.5714 14.1319 22.486 14.5602 22.4007 14.9884L 22.1446 16.1875L 21.8885 14.9884C 21.8032 14.5602 21.7178 14.1319 21.5471 13.7037L 21.4618 13.5324C 21.3764 13.1898 21.2911 12.8472 21.2057 12.5903L 17.6208 0.942129C 17.5355 0.685185 17.3648 0.428238 17.1087 0.256942C 16.8527 0.0856455 16.5112 1.30689e-06 16.1698 1.30689e-06L 14.6335 1.30689e-06C 14.292 1.30689e-06 13.9506 0.0856455 13.6946 0.256942C 13.4385 0.428238 13.2678 0.685185 13.1824 0.942129L 9.25616 13.7893C 9.17081 14.2176 9.0001 14.6458 8.91474 15.1597L 8.57333 16.6157L 8.40262 15.1597C 8.31727 14.7315 8.31727 14.2176 8.14656 13.875C 8.06121 13.4467 7.97585 13.0185 7.80514 12.6759L 4.81776 0.942129C 4.7324 0.685185 4.56169 0.428238 4.30563 0.256942C 4.04957 0.0856455 3.70815 1.30689e-06 3.28139 1.30689e-06L 1.91572 1.30689e-06C 1.31824 1.30689e-06 0.720766 0.256947 0.37935 0.770835C 0.0379344 1.28472 -0.132773 1.88426 0.123289 2.4838L 5.67129 20.4699C 5.92736 21.3264 6.69554 21.8403 7.54908 21.8403L 9.0001 21.8403C 9.85364 21.8403 10.6218 21.3264 10.8779 20.4699L 14.6335 8.13657C 14.7188 7.87963 14.8042 7.70833 14.8895 7.45138C 14.9749 7.19444 15.0602 6.93749 15.1456 6.68055L 15.4016 5.73842L 15.6577 6.68055C 15.7431 6.93749 15.8284 7.19444 15.9138 7.45138C 15.9991 7.70833 16.0845 7.96527 16.1698 8.13657L 19.9254 20.4699C 20.1815 21.3264 20.9496 21.8403 21.8032 21.8403L 23.2542 21.8403C 24.1077 21.8403 24.8759 21.3264 25.132 20.4699L 30.68 2.4838C 30.8507 1.88426 30.7654 1.28472 30.4239 0.770835C 30.0825 0.256947 29.485 1.30689e-06 28.8876 1.30689e-06L 27.4365 1.30689e-06Z"/>
<path id="path2_fill" d="M 2.81668 1.30689e-06L 1.96314 1.30689e-06C 0.853541 1.30689e-06 -1.3024e-06 0.856478 -1.3024e-06 1.9699L -1.3024e-06 19.956C -1.3024e-06 21.0694 0.853541 21.9259 1.96314 21.9259L 2.81668 21.9259C 3.92628 21.9259 4.77982 21.0694 4.77982 19.956L 4.77982 1.9699C 4.77982 0.942126 3.92628 1.30689e-06 2.81668 1.30689e-06Z"/>
<path id="path3_fill" d="M 11.2667 3.85416C 11.8642 3.85416 12.291 3.93981 12.7177 3.93981C 13.1445 4.02546 13.4859 4.11111 13.8273 4.2824C 14.1688 4.36805 14.4248 4.53935 14.6809 4.71064L 15.2784 5.05324C 15.4491 5.13889 15.6198 5.22454 15.7905 5.31018C 16.1319 5.48148 16.5587 5.39583 16.7294 5.31018C 16.9001 5.22454 16.9854 5.05324 17.0708 4.96759L 18.6925 2.82639C 18.3511 2.4838 17.9243 2.1412 17.4122 1.79861C 16.9001 1.45601 16.3026 1.11342 15.7051 0.85648C 15.1076 0.599535 14.4248 0.428242 13.6566 0.256946C 12.8884 0.0856494 12.1203 -1.30689e-06 11.3521 -1.30689e-06C 9.645 -1.30689e-06 8.10863 0.256943 6.74296 0.85648C 5.3773 1.37037 4.09699 2.22685 3.15809 3.16898C 2.13385 4.19676 1.36566 5.31018 0.853539 6.68055C 0.256062 8.05092 1.21295e-14 9.59258 1.21295e-14 11.2199C 1.21295e-14 12.8472 0.256063 14.3032 0.768187 15.6736C 1.28031 17.044 1.96314 18.243 2.90204 19.1852C 3.84093 20.2129 4.95053 20.9838 6.23084 21.4977C 7.51115 22.0972 9.04752 22.3541 10.6692 22.3541C 12.4617 22.3541 14.0834 22.0972 15.3637 21.4977C 15.8758 21.2407 16.388 20.9838 16.9001 20.6412C 17.4122 20.2986 17.6683 19.7847 17.7536 19.1852C 17.839 18.5856 17.5829 18.0717 17.2415 17.6435L 16.644 17.044C 16.5587 16.9583 16.4733 16.8727 16.388 16.8727C 16.1319 16.787 15.9612 16.787 15.7905 16.8727C 15.7051 16.9583 15.5344 17.044 15.4491 17.1296C 15.1076 17.3866 14.8516 17.6435 14.5102 17.8148C 14.1688 17.9861 13.8273 18.1574 13.4859 18.243C 13.1445 18.3287 12.7177 18.4143 12.3763 18.5C 11.9496 18.5856 11.5228 18.5856 11.096 18.5856C 10.2425 18.5856 9.47429 18.4143 8.7061 18.0717C 7.93791 17.7292 7.34044 17.2153 6.74296 16.6157C 6.23084 16.0162 5.71872 15.1597 5.46265 14.3032C 5.12124 13.3611 4.95053 12.3333 4.95053 11.1342C 4.95053 10.0208 5.12124 8.99305 5.46265 8.05092C 5.80407 7.10879 6.23084 6.33796 6.82832 5.73842C 7.42579 5.05324 8.10863 4.625 8.87681 4.2824C 9.38894 4.02546 10.3278 3.85416 11.2667 3.85416Z"/>
<path id="path4_fill" d="M 17.3268 18.9282L 12.8031 11.9051C 12.547 11.4768 12.291 11.2199 11.9495 10.963C 11.6081 10.706 11.3521 10.5347 10.9253 10.4491L 10.4132 10.2778L 10.84 10.0208C 11.096 9.84953 11.3521 9.67823 11.6081 9.50694C 11.8642 9.33564 12.1203 9.0787 12.291 8.7361L 16.388 3.16898C 16.8147 2.56944 16.9001 1.79861 16.5587 1.11342C 16.2172 0.428238 15.5344 1.30689e-06 14.8516 1.30689e-06L 14.6809 1.30689e-06C 14.1688 1.30689e-06 13.8273 0.0856468 13.4859 0.171295C 13.1445 0.256943 12.8884 0.513889 12.6324 0.942129L 7.5965 8.22222C 7.25508 8.73611 6.57226 9.0787 5.71872 9.0787L 4.69446 9.0787L 4.69446 1.9699C 4.69446 0.856478 3.84093 1.30689e-06 2.73133 1.30689e-06L 1.96314 1.30689e-06C 0.853539 1.30689e-06 -2.6048e-06 0.856478 -2.6048e-06 1.9699L -2.6048e-06 19.956C -2.6048e-06 21.0694 0.853539 21.9259 1.96314 21.9259L 2.73133 21.9259C 3.84093 21.9259 4.69446 21.0694 4.69446 19.956L 4.69446 12.419L 6.23084 12.419C 6.74296 12.419 7.16973 12.5046 7.42579 12.5903C 7.76721 12.7616 8.02327 12.9329 8.19398 13.2755L 13.2299 21.0694C 13.3152 21.2407 13.4006 21.3264 13.4859 21.412C 13.5713 21.4977 13.6566 21.5833 13.8273 21.669C 13.998 21.7546 14.0834 21.7546 14.3395 21.8403C 14.5102 21.8403 14.7662 21.9259 15.0223 21.9259L 15.6198 21.9259C 16.388 21.9259 16.9854 21.5833 17.3268 20.8981C 17.7536 20.2986 17.7536 19.5278 17.3268 18.9282Z"/>
<path id="path5_fill" d="M 6.31619 3.68287C 6.31619 4.19676 6.23084 4.71065 6.06013 5.13889C 5.88942 5.56713 5.63336 5.99536 5.29194 6.25231C 4.95053 6.5949 4.60911 6.85185 4.18234 7.02315C 3.75557 7.19444 3.24345 7.28009 2.73133 7.28009L -6.51199e-07 7.28009L -6.51199e-07 -1.30689e-06L 2.73133 -1.30689e-06C 3.24345 -1.30689e-06 3.75557 0.0856494 4.18234 0.256946C 4.60911 0.428242 5.03588 0.685187 5.29194 1.02778C 5.63336 1.37037 5.88942 1.71296 6.06013 2.1412C 6.23084 2.56944 6.31619 3.08333 6.31619 3.68287ZM 5.29194 3.68287C 5.29194 3.25463 5.20659 2.82639 5.12124 2.4838C 5.03588 2.1412 4.86517 1.79861 4.60911 1.62731C 4.35305 1.37037 4.09699 1.19908 3.84093 1.02778C 3.49951 0.856484 3.15809 0.85648 2.81668 0.85648L 1.1096 0.85648L 1.1096 6.50925L 2.81668 6.50925C 3.24345 6.50925 3.58486 6.42361 3.84093 6.33796C 4.18234 6.16666 4.43841 5.99536 4.60911 5.82407C 4.86517 5.56712 5.03588 5.31018 5.12124 4.96759C 5.20659 4.4537 5.29194 4.11111 5.29194 3.68287Z"/>
<path id="path6_fill" d="M 7.16973 3.76852C 7.16973 4.28241 7.08438 4.79629 6.91367 5.31018C 6.74296 5.73842 6.4869 6.16667 6.14549 6.50926C 5.80407 6.85185 5.46265 7.10879 5.03588 7.28009C 4.60912 7.45139 4.09699 7.53704 3.58487 7.53704C 3.07274 7.53704 2.56062 7.45139 2.13385 7.28009C 1.70708 7.10879 1.28031 6.85185 1.02425 6.50926C 0.682832 6.16667 0.426769 5.82407 0.256061 5.31018C 0.0853533 4.88194 -6.06476e-15 4.36805 -6.06476e-15 3.76852C -6.06476e-15 3.16898 0.0853533 2.74074 0.256061 2.22685C 0.426769 1.79861 0.682832 1.37037 1.02425 1.02777C 1.36566 0.685182 1.70708 0.428243 2.13385 0.256947C 2.56062 0.0856507 3.07274 -1.21713e-14 3.58487 -1.21713e-14C 4.09699 -1.21713e-14 4.60912 0.0856507 5.03588 0.256947C 5.46265 0.428243 5.88942 0.685182 6.14549 1.02777C 6.4869 1.37037 6.74296 1.71296 6.91367 2.22685C 7.08438 2.65509 7.16973 3.16898 7.16973 3.76852ZM 6.14549 3.76852C 6.14549 3.34028 6.06013 2.91204 5.97478 2.56944C 5.88942 2.22685 5.71872 1.88426 5.46265 1.62732C 5.20659 1.37037 4.95053 1.19907 4.69447 1.02777C 4.35305 0.856478 4.01164 0.856481 3.67022 0.856481C 3.24345 0.856481 2.90203 0.942127 2.64597 1.02777C 2.30456 1.19907 2.04849 1.37037 1.79243 1.62732C 1.53637 1.88426 1.36566 2.1412 1.28031 2.56944C 1.19496 2.91204 1.1096 3.34028 1.1096 3.76852C 1.1096 4.19676 1.19496 4.625 1.28031 4.96759C 1.36566 5.31018 1.53637 5.65277 1.79243 5.90971C 2.04849 6.16666 2.30456 6.33796 2.64597 6.50926C 2.98739 6.68056 3.3288 6.68055 3.67022 6.68055C 4.09699 6.68055 4.43841 6.59491 4.69447 6.50926C 5.03588 6.33796 5.29195 6.16666 5.46265 5.90971C 5.71872 5.65277 5.88942 5.39583 5.97478 4.96759C 6.06013 4.53935 6.14549 4.19676 6.14549 3.76852Z"/>
<path id="path7_fill" d="M 5.54801 5.99536C 5.63336 5.99536 5.63336 5.99537 5.71872 6.08102L 6.14549 6.50926C 5.88942 6.85185 5.46265 7.10879 5.03588 7.28008C 4.60911 7.45138 4.09699 7.53703 3.49951 7.53703C 2.98739 7.53703 2.47526 7.45138 2.04849 7.28008C 1.62172 7.10879 1.28031 6.85185 0.938893 6.50926C 0.597477 6.16666 0.42677 5.82408 0.256062 5.31019C 0.085354 4.88195 6.51199e-07 4.36806 6.51199e-07 3.76852C 6.51199e-07 3.16898 0.085354 2.74074 0.256062 2.22685C 0.42677 1.79861 0.682833 1.37037 1.02425 1.02778C 1.36566 0.685184 1.70708 0.428238 2.2192 0.256942C 2.64597 0.0856455 3.1581 1.30689e-06 3.67022 1.30689e-06C 4.18234 1.30689e-06 4.69447 0.0856455 5.03588 0.256942C 5.46265 0.428238 5.80407 0.685185 6.06013 0.942129L 5.71872 1.37037L 5.63336 1.45602C 5.63336 1.45602 5.54801 1.45602 5.46265 1.45602C 5.3773 1.45602 5.3773 1.45602 5.29195 1.37037C 5.20659 1.28472 5.20659 1.28472 5.12124 1.28472C 5.03588 1.19907 4.95053 1.19907 4.86518 1.11342C 4.77982 1.02777 4.69447 1.02778 4.52376 0.942129C 4.43841 0.856481 4.2677 0.856482 4.09699 0.856482C 3.92628 0.856482 3.75557 0.770836 3.49951 0.770836C 3.07274 0.770836 2.73133 0.856481 2.47526 0.942129C 2.13385 1.11343 1.87779 1.28472 1.62172 1.54166C 1.36566 1.79861 1.19496 2.05556 1.1096 2.4838C 0.938893 2.82639 0.938893 3.25463 0.938893 3.68287C 0.938893 4.11111 1.02425 4.53935 1.1096 4.88195C 1.28031 5.22454 1.45102 5.56712 1.62172 5.82407C 1.87779 6.08101 2.13385 6.25231 2.38991 6.4236C 2.73133 6.5949 2.98739 6.59491 3.41416 6.59491C 3.67022 6.59491 3.84093 6.59491 4.01164 6.59491C 4.18234 6.59491 4.35305 6.50926 4.52376 6.50926C 4.69447 6.42361 4.77982 6.42361 4.95053 6.33796C 5.03588 6.25231 5.20659 6.16666 5.29195 6.08102C 5.46265 5.99537 5.46265 5.99536 5.54801 5.99536Z"/>
<path id="path8_fill" d="M 5.71872 -1.30689e-06L 5.71872 0.85648L 3.41416 0.85648L 3.41416 7.28009L 2.38991 7.28009L 2.38991 0.85648L -2.6048e-06 0.85648L -2.6048e-06 -1.30689e-06L 5.71872 -1.30689e-06Z"/>
<path id="path9_fill" d="M 7.16973 3.76852C 7.16973 4.28241 7.08438 4.79629 6.91367 5.31018C 6.74297 5.73842 6.4869 6.16667 6.14549 6.50926C 5.80407 6.85185 5.46265 7.10879 5.03588 7.28009C 4.60911 7.45139 4.09699 7.53704 3.58487 7.53704C 3.07274 7.53704 2.56062 7.45139 2.13385 7.28009C 1.70708 7.10879 1.28031 6.85185 1.02425 6.50926C 0.682833 6.16667 0.42677 5.82407 0.256062 5.31018C 0.085354 4.88194 -2.6048e-06 4.36805 -2.6048e-06 3.76852C -2.6048e-06 3.16898 0.085354 2.74074 0.256062 2.22685C 0.42677 1.79861 0.682833 1.37037 1.02425 1.02777C 1.36566 0.685182 1.70708 0.428243 2.13385 0.256947C 2.56062 0.0856507 3.07274 -1.21713e-14 3.58487 -1.21713e-14C 4.09699 -1.21713e-14 4.60911 0.0856507 5.03588 0.256947C 5.46265 0.428243 5.88942 0.685182 6.14549 1.02777C 6.4869 1.37037 6.74297 1.71296 6.91367 2.22685C 7.08438 2.65509 7.16973 3.16898 7.16973 3.76852ZM 6.23084 3.76852C 6.23084 3.34028 6.14549 2.91204 6.06013 2.56944C 5.97478 2.22685 5.80407 1.88426 5.54801 1.62732C 5.29194 1.37037 5.03589 1.19907 4.77982 1.02777C 4.43841 0.856478 4.09699 0.856481 3.75557 0.856481C 3.3288 0.856481 2.98739 0.942127 2.73133 1.02777C 2.38991 1.19907 2.13385 1.37037 1.87779 1.62732C 1.62173 1.88426 1.45102 2.1412 1.36567 2.56944C 1.28031 2.91204 1.19495 3.34028 1.19495 3.76852C 1.19495 4.19676 1.28031 4.625 1.36567 4.96759C 1.45102 5.31018 1.62173 5.65277 1.87779 5.90971C 2.13385 6.16666 2.38991 6.33796 2.73133 6.50926C 3.07274 6.68056 3.41416 6.68055 3.75557 6.68055C 4.18234 6.68055 4.52376 6.59491 4.77982 6.50926C 5.12124 6.33796 5.3773 6.16666 5.54801 5.90971C 5.80407 5.65277 5.97478 5.39583 6.06013 4.96759C 6.14549 4.53935 6.23084 4.19676 6.23084 3.76852Z"/>
<path id="path10_fill" d="M 0.938891 4.28241L 0.938891 7.28009L -1.3024e-06 7.28009L -1.3024e-06 -1.30689e-06L 2.04849 -1.30689e-06C 2.47526 -1.30689e-06 2.90204 0.0856507 3.24345 0.171299C 3.58487 0.256947 3.84093 0.428243 4.09699 0.599539C 4.35305 0.770836 4.43841 1.02778 4.60911 1.19907C 4.69447 1.45602 4.77982 1.71296 4.77982 2.05555C 4.77982 2.3125 4.77982 2.56945 4.69447 2.74074C 4.60911 2.91204 4.52376 3.16898 4.35305 3.34028C 4.18234 3.51157 4.01164 3.68287 3.75557 3.76852C 3.49951 3.85416 3.24345 4.02546 2.98739 4.02546C 3.07274 4.11111 3.24345 4.19675 3.3288 4.36805L 5.46265 7.28009L 4.60911 7.28009C 4.43841 7.28009 4.2677 7.19444 4.18234 7.10879L 2.30456 4.53934C 2.21921 4.4537 2.2192 4.36805 2.13385 4.36805C 2.04849 4.36805 1.96314 4.28241 1.79243 4.28241L 0.938891 4.28241ZM 0.938891 3.51157L 1.96314 3.51157C 2.2192 3.51157 2.47527 3.51157 2.73133 3.42592C 2.98739 3.34028 3.1581 3.25463 3.24345 3.16898C 3.41416 3.08333 3.49951 2.91204 3.58487 2.74074C 3.67022 2.56945 3.67022 2.39815 3.67022 2.1412C 3.67022 1.71296 3.49951 1.37037 3.24345 1.19907C 2.98739 0.942129 2.56062 0.85648 1.96314 0.85648L 0.853538 0.85648L 0.853538 3.51157L 0.938891 3.51157Z"/>
<path id="path11_fill" d="M 3.74781 31.9575L -4.14399e-07 31.9575L -4.14399e-07 9.45068C -4.14399e-07 4.261 4.23666 0 9.39669 0C 14.5567 0 18.7934 4.261 18.7934 9.45068L 18.7934 13.6571L 15.0456 13.6571L 15.0456 9.50531C 15.0456 6.33687 12.4927 3.76935 9.34238 3.76935C 6.19204 3.76935 3.63918 6.33687 3.63918 9.50531L 3.63918 31.9575L 3.74781 31.9575Z"/>
<path id="path12_fill" d="M 6.02909 8.1396L 6.02909 12.346L 9.77691 12.346L 9.77691 8.19423C 9.77691 4.69803 7.87584 1.63885 5.10572 5.20975e-08L 0 2.45827C 0.108632 2.45827 0.217264 2.45827 0.325896 2.45827C 3.47623 2.45827 6.02909 5.0258 6.02909 8.1396Z"/>
<path id="path13_fill" d="M 3.74781 2.0839e-07L -4.14399e-07 2.0839e-07L -4.14399e-07 23.5448L 3.74781 20.1032L 3.74781 2.0839e-07Z"/>
<path id="path14_fill" d="M 38.1843 25.0743L 33.839 20.6495L 38.2386 16.2246C 40.031 14.4218 41.0087 12.0728 41.0087 9.50531C 41.0087 6.99241 40.031 4.58877 38.2386 2.78604C 36.4461 0.983308 34.1105 0 31.5577 0C 29.0591 0 26.6692 0.983308 24.8768 2.78604L 14.1222 13.6571C 14.0136 13.7663 13.9049 13.8209 13.8506 13.9302C 13.742 14.0395 13.6877 14.1487 13.579 14.2033L 2.77012 25.0743C 0.97769 26.8771 0 29.2261 0 31.7936C 0 34.3611 0.97769 36.7102 2.77012 38.5129C 4.56256 40.3156 6.89815 41.2989 9.45101 41.2989C 12.0039 41.2989 14.3395 40.3156 16.1319 38.5129L 20.5315 34.088L 24.9311 38.5129C 26.7235 40.3156 29.0591 41.2989 31.612 41.2989C 34.1105 41.2989 36.5005 40.3156 38.2929 38.5129C 40.0853 36.7102 41.063 34.3611 41.063 31.7936C 41.063 29.2261 39.9767 26.8225 38.1843 25.0743ZM 27.5383 5.51745C 28.6246 4.42489 30.0368 3.8786 31.5577 3.8786C 33.0785 3.8786 34.4908 4.47951 35.5771 5.51745C 36.6634 6.61001 37.2066 8.03035 37.2066 9.55994C 37.2066 11.0895 36.6091 12.5099 35.5771 13.6024L 31.1775 18.0273L 27.1581 13.9848C 25.6915 12.5099 23.8448 11.5812 21.7808 11.308L 27.5383 5.51745ZM 16.5121 16.607C 17.5984 15.5144 19.0107 14.9681 20.5315 14.9681C 22.0524 14.9681 23.4646 15.569 24.5509 16.607L 28.5703 20.6495L 20.4772 28.7344L 16.4578 24.6919C 14.2851 22.4522 14.2851 18.8467 16.5121 16.607ZM 13.4704 35.7815C 12.3841 36.874 10.9719 37.4203 9.45101 37.4203C 7.93016 37.4203 6.51794 36.8194 5.43161 35.7815C 4.34529 34.6889 3.80213 33.2686 3.80213 31.739C 3.80213 30.2094 4.39961 28.7891 5.43161 27.6965L 11.1348 21.9605C 11.4064 23.9272 12.2754 25.8391 13.7963 27.3687L 17.8157 31.4112L 13.4704 35.7815ZM 35.5771 35.7815C 34.4908 36.874 33.0785 37.4203 31.5577 37.4203C 30.0368 37.4203 28.6246 36.8194 27.5383 35.7815L 23.1387 31.3566L 31.1775 23.2716L 35.5771 27.6965C 36.6634 28.7891 37.2066 30.2094 37.2066 31.739C 37.2066 33.2686 36.6091 34.7435 35.5771 35.7815Z"/>
<path id="path15_fill" d="M -8.28799e-07 -4.1678e-07L 2.66149 2.67678L -8.28799e-07 -4.1678e-07Z"/>
<path id="path16_fill" d="M -8.28799e-07 3.82397L 2.66149 6.50076L 6.46362 2.67678L 3.80213 -4.1678e-07L -8.28799e-07 3.82397Z"/>
<path id="path17_fill" d="M 2.66149 6.50076L 6.46362 2.67678L 3.80213 4.1678e-07L -1.6576e-06 3.82398L 2.66149 6.50076Z"/>
<path id="path18_fill" d="M 6.40931 3.82397L 2.66149 0L -8.28799e-07 2.67678L 3.80213 6.50076L 6.40931 3.82397Z"/>
<path id="path19_fill" d="M 8.28799e-07 2.62215L 3.80213 6.50076L 6.46362 3.82398L 2.66149 8.3356e-07L 8.28799e-07 2.62215Z"/>
<path id="path20_fill" d="M -4.14399e-07 22.2337L 22.1067 -5.20975e-08L 24.7682 2.67678L 19.0107 8.41274C 18.5761 8.35812 18.1416 8.30349 17.7071 8.30349C 15.2085 8.30349 12.8186 9.28679 11.0262 11.0895C 8.85353 13.2747 7.98448 16.2792 8.36469 19.1199L 2.66149 24.8558L 8.419 19.0652L 2.66149 24.8558L -4.14399e-07 22.2337Z"/>
</defs>
</svg>
