<svg xmlns="http://www.w3.org/2000/svg" viewBox="0 0 18 20"><defs><style>.cls-1{fill:#0c97f9;}</style></defs><title>Asset 7medical_record_blue</title><g id="Layer_2" data-name="Layer 2"><g id="Layer_1-2" data-name="Layer 1"><g id="Page-1"><g id="medical-records"><path id="path-1" class="cls-1" d="M3,3A1,1,0,0,0,2,4V17a1,1,0,0,0,1,1H15a1,1,0,0,0,1-1V4a1,1,0,0,0-1-1ZM3,1H15a3,3,0,0,1,3,3V17a3,3,0,0,1-3,3H3a3,3,0,0,1-3-3V4A3,3,0,0,1,3,1ZM6.5,0h5A1.5,1.5,0,0,1,13,1.5v2A1.5,1.5,0,0,1,11.5,5h-5A1.5,1.5,0,0,1,5,3.5v-2A1.5,1.5,0,0,1,6.5,0ZM10,10h1.5a1,1,0,0,1,0,2H10v1.5a1,1,0,0,1-2,0V12H6.5a1,1,0,0,1,0-2H8V8.5a1,1,0,0,1,2,0Z"/></g></g></g></g></svg>