<svg xmlns="http://www.w3.org/2000/svg" viewBox="0 0 16 19"><defs><style>.cls-1{fill:#0c97f9;}</style></defs><title>Asset 9prescription_blue</title><g id="Layer_2" data-name="Layer 2"><g id="Layer_1-2" data-name="Layer 1"><g id="Page-1"><g id="prescription"><path id="path-1" class="cls-1" d="M3,2A1,1,0,0,0,2,3V16a1,1,0,0,0,1,1H13a1,1,0,0,0,1-1V3a1,1,0,0,0-1-1ZM3,0H13a3,3,0,0,1,3,3V16a3,3,0,0,1-3,3H3a3,3,0,0,1-3-3V3A3,3,0,0,1,3,0ZM8.25,8.69,9,9.94,10.15,8.2h2.32L10.3,11.38l2.37,3.48H10.3L9,13l-1.25,1.9H5.48l2.36-3.39L6.22,9.06H5.48v1.8h-2V4.2H6.61a3.14,3.14,0,0,1,2.07.62,2.15,2.15,0,0,1,.74,1.75,2.63,2.63,0,0,1-.29,1.26,2.12,2.12,0,0,1-.83.85ZM5.48,7.54H6.61a1,1,0,0,0,.69-.23.93.93,0,0,0,.24-.69A.9.9,0,0,0,7.3,6a1,1,0,0,0-.69-.23H5.48Z"/></g></g></g></g></svg>